<mxfile host="www.draw.io" modified="2023-06-30T17:03:17.061Z" agent="Mozilla/5.0 (Windows NT 10.0; Win64; x64) AppleWebKit/537.36 (KHTML, like Gecko) Chrome/114.0.0.0 Safari/537.36" version="21.5.1" etag="dbBpmNFuU4mWHiAIIdpf" type="device">
  <diagram id="hSTim9VHL2ifWJsFy875" name="Страница 1">
    <mxGraphModel dx="1434" dy="796" grid="1" gridSize="10" guides="1" tooltips="1" connect="1" arrows="1" fold="1" page="1" pageScale="1" pageWidth="827" pageHeight="1169" math="0" shadow="0">
      <root>
        <mxCell id="0" />
        <mxCell id="1" parent="0" />
        <mxCell id="OHQ6-CyjaJ-93ZzPqjoy-3" value="&lt;p style=&quot;margin:0px;margin-top:4px;text-align:center;&quot;&gt;&lt;b&gt;car&lt;/b&gt;&lt;/p&gt;&lt;hr size=&quot;1&quot;&gt;&lt;p style=&quot;margin:0px;margin-left:4px;&quot;&gt;-model: string&lt;/p&gt;&lt;p style=&quot;margin:0px;margin-left:4px;&quot;&gt;-class: string&lt;/p&gt;&lt;p style=&quot;margin:0px;margin-left:4px;&quot;&gt;-color: string&lt;/p&gt;&lt;hr size=&quot;1&quot;&gt;&lt;p style=&quot;margin:0px;margin-left:4px;&quot;&gt;+ change color(string):void&lt;/p&gt;&lt;p style=&quot;margin:0px;margin-left:4px;&quot;&gt;&lt;br&gt;&lt;/p&gt;" style="verticalAlign=top;align=left;overflow=fill;fontSize=12;fontFamily=Helvetica;html=1;whiteSpace=wrap;" vertex="1" parent="1">
          <mxGeometry x="50" y="350" width="170" height="170" as="geometry" />
        </mxCell>
        <mxCell id="OHQ6-CyjaJ-93ZzPqjoy-7" value="driver" style="swimlane;fontStyle=1;align=center;verticalAlign=top;childLayout=stackLayout;horizontal=1;startSize=26;horizontalStack=0;resizeParent=1;resizeParentMax=0;resizeLast=0;collapsible=1;marginBottom=0;whiteSpace=wrap;html=1;" vertex="1" parent="1">
          <mxGeometry x="300" y="350" width="200" height="170" as="geometry" />
        </mxCell>
        <mxCell id="OHQ6-CyjaJ-93ZzPqjoy-8" value="- name: string&lt;br&gt;- age: int&lt;br&gt;- mark: float&lt;br&gt;-review: string[ ]" style="text;strokeColor=none;fillColor=none;align=left;verticalAlign=top;spacingLeft=4;spacingRight=4;overflow=hidden;rotatable=0;points=[[0,0.5],[1,0.5]];portConstraint=eastwest;whiteSpace=wrap;html=1;" vertex="1" parent="OHQ6-CyjaJ-93ZzPqjoy-7">
          <mxGeometry y="26" width="200" height="64" as="geometry" />
        </mxCell>
        <mxCell id="OHQ6-CyjaJ-93ZzPqjoy-9" value="" style="line;strokeWidth=1;fillColor=none;align=left;verticalAlign=middle;spacingTop=-1;spacingLeft=3;spacingRight=3;rotatable=0;labelPosition=right;points=[];portConstraint=eastwest;strokeColor=inherit;" vertex="1" parent="OHQ6-CyjaJ-93ZzPqjoy-7">
          <mxGeometry y="90" width="200" height="8" as="geometry" />
        </mxCell>
        <mxCell id="OHQ6-CyjaJ-93ZzPqjoy-10" value="+ change age(int): void&lt;br&gt;+ change name(string): void&lt;br&gt;+ addMark(int): float&lt;br&gt;+ addReview(string):string" style="text;strokeColor=none;fillColor=none;align=left;verticalAlign=top;spacingLeft=4;spacingRight=4;overflow=hidden;rotatable=0;points=[[0,0.5],[1,0.5]];portConstraint=eastwest;whiteSpace=wrap;html=1;" vertex="1" parent="OHQ6-CyjaJ-93ZzPqjoy-7">
          <mxGeometry y="98" width="200" height="72" as="geometry" />
        </mxCell>
        <mxCell id="OHQ6-CyjaJ-93ZzPqjoy-47" style="edgeStyle=orthogonalEdgeStyle;rounded=0;orthogonalLoop=1;jettySize=auto;html=1;entryX=1.01;entryY=0.922;entryDx=0;entryDy=0;entryPerimeter=0;endArrow=none;endFill=0;" edge="1" parent="1" source="OHQ6-CyjaJ-93ZzPqjoy-11" target="OHQ6-CyjaJ-93ZzPqjoy-8">
          <mxGeometry relative="1" as="geometry" />
        </mxCell>
        <mxCell id="OHQ6-CyjaJ-93ZzPqjoy-11" value="client" style="swimlane;fontStyle=1;align=center;verticalAlign=top;childLayout=stackLayout;horizontal=1;startSize=26;horizontalStack=0;resizeParent=1;resizeParentMax=0;resizeLast=0;collapsible=1;marginBottom=0;whiteSpace=wrap;html=1;" vertex="1" parent="1">
          <mxGeometry x="590" y="350" width="170" height="170" as="geometry" />
        </mxCell>
        <mxCell id="OHQ6-CyjaJ-93ZzPqjoy-12" value="-name: string&lt;br&gt;-mark: float&lt;br&gt;-review: string[ ]" style="text;strokeColor=none;fillColor=none;align=left;verticalAlign=top;spacingLeft=4;spacingRight=4;overflow=hidden;rotatable=0;points=[[0,0.5],[1,0.5]];portConstraint=eastwest;whiteSpace=wrap;html=1;" vertex="1" parent="OHQ6-CyjaJ-93ZzPqjoy-11">
          <mxGeometry y="26" width="170" height="54" as="geometry" />
        </mxCell>
        <mxCell id="OHQ6-CyjaJ-93ZzPqjoy-13" value="" style="line;strokeWidth=1;fillColor=none;align=left;verticalAlign=middle;spacingTop=-1;spacingLeft=3;spacingRight=3;rotatable=0;labelPosition=right;points=[];portConstraint=eastwest;strokeColor=inherit;" vertex="1" parent="OHQ6-CyjaJ-93ZzPqjoy-11">
          <mxGeometry y="80" width="170" height="8" as="geometry" />
        </mxCell>
        <mxCell id="OHQ6-CyjaJ-93ZzPqjoy-14" value="+ addMark(int): float&lt;br&gt;+ addReview(string):string" style="text;strokeColor=none;fillColor=none;align=left;verticalAlign=top;spacingLeft=4;spacingRight=4;overflow=hidden;rotatable=0;points=[[0,0.5],[1,0.5]];portConstraint=eastwest;whiteSpace=wrap;html=1;" vertex="1" parent="OHQ6-CyjaJ-93ZzPqjoy-11">
          <mxGeometry y="88" width="170" height="82" as="geometry" />
        </mxCell>
        <mxCell id="OHQ6-CyjaJ-93ZzPqjoy-16" value="" style="endArrow=diamondThin;endFill=0;endSize=24;html=1;rounded=0;entryX=1;entryY=0.5;entryDx=0;entryDy=0;exitX=-0.01;exitY=0.938;exitDx=0;exitDy=0;exitPerimeter=0;" edge="1" parent="1" source="OHQ6-CyjaJ-93ZzPqjoy-8" target="OHQ6-CyjaJ-93ZzPqjoy-3">
          <mxGeometry width="160" relative="1" as="geometry">
            <mxPoint x="330" y="310" as="sourcePoint" />
            <mxPoint x="490" y="310" as="targetPoint" />
          </mxGeometry>
        </mxCell>
        <mxCell id="OHQ6-CyjaJ-93ZzPqjoy-17" value="1&amp;nbsp; &amp;nbsp; &amp;nbsp; &amp;nbsp;1" style="text;html=1;align=center;verticalAlign=middle;resizable=0;points=[];autosize=1;strokeColor=none;fillColor=none;" vertex="1" parent="1">
          <mxGeometry x="230" y="410" width="60" height="30" as="geometry" />
        </mxCell>
        <mxCell id="OHQ6-CyjaJ-93ZzPqjoy-42" style="edgeStyle=orthogonalEdgeStyle;rounded=0;orthogonalLoop=1;jettySize=auto;html=1;entryX=0.5;entryY=0;entryDx=0;entryDy=0;startArrow=none;startFill=0;endArrow=none;endFill=0;" edge="1" parent="1" source="OHQ6-CyjaJ-93ZzPqjoy-19" target="OHQ6-CyjaJ-93ZzPqjoy-3">
          <mxGeometry relative="1" as="geometry" />
        </mxCell>
        <mxCell id="OHQ6-CyjaJ-93ZzPqjoy-44" style="edgeStyle=orthogonalEdgeStyle;rounded=0;orthogonalLoop=1;jettySize=auto;html=1;entryX=0.5;entryY=0;entryDx=0;entryDy=0;endArrow=none;endFill=0;" edge="1" parent="1" source="OHQ6-CyjaJ-93ZzPqjoy-19" target="OHQ6-CyjaJ-93ZzPqjoy-7">
          <mxGeometry relative="1" as="geometry" />
        </mxCell>
        <mxCell id="OHQ6-CyjaJ-93ZzPqjoy-19" value="company" style="swimlane;fontStyle=1;align=center;verticalAlign=top;childLayout=stackLayout;horizontal=1;startSize=26;horizontalStack=0;resizeParent=1;resizeParentMax=0;resizeLast=0;collapsible=1;marginBottom=0;whiteSpace=wrap;html=1;" vertex="1" parent="1">
          <mxGeometry x="320" y="60" width="160" height="230" as="geometry" />
        </mxCell>
        <mxCell id="OHQ6-CyjaJ-93ZzPqjoy-20" value="- cars: car [ ]&lt;br&gt;- drivers: driver [ ]&amp;nbsp;&lt;br&gt;- orders: order [ ]" style="text;strokeColor=none;fillColor=none;align=left;verticalAlign=top;spacingLeft=4;spacingRight=4;overflow=hidden;rotatable=0;points=[[0,0.5],[1,0.5]];portConstraint=eastwest;whiteSpace=wrap;html=1;" vertex="1" parent="OHQ6-CyjaJ-93ZzPqjoy-19">
          <mxGeometry y="26" width="160" height="104" as="geometry" />
        </mxCell>
        <mxCell id="OHQ6-CyjaJ-93ZzPqjoy-21" value="" style="line;strokeWidth=1;fillColor=none;align=left;verticalAlign=middle;spacingTop=-1;spacingLeft=3;spacingRight=3;rotatable=0;labelPosition=right;points=[];portConstraint=eastwest;strokeColor=inherit;" vertex="1" parent="OHQ6-CyjaJ-93ZzPqjoy-19">
          <mxGeometry y="130" width="160" height="8" as="geometry" />
        </mxCell>
        <mxCell id="OHQ6-CyjaJ-93ZzPqjoy-22" value="+ addDrivers(driver): void&lt;br&gt;+ addCars(car): void&lt;br&gt;+ addOrder(order): void" style="text;strokeColor=none;fillColor=none;align=left;verticalAlign=top;spacingLeft=4;spacingRight=4;overflow=hidden;rotatable=0;points=[[0,0.5],[1,0.5]];portConstraint=eastwest;whiteSpace=wrap;html=1;" vertex="1" parent="OHQ6-CyjaJ-93ZzPqjoy-19">
          <mxGeometry y="138" width="160" height="92" as="geometry" />
        </mxCell>
        <mxCell id="OHQ6-CyjaJ-93ZzPqjoy-25" value="&amp;nbsp; &amp;nbsp; &amp;nbsp; &amp;nbsp; &amp;nbsp; &amp;nbsp; &amp;nbsp; &amp;nbsp; &amp;nbsp; &amp;nbsp; &amp;nbsp; &amp;nbsp; &amp;nbsp;1" style="text;html=1;align=center;verticalAlign=middle;resizable=0;points=[];autosize=1;strokeColor=none;fillColor=none;rotation=0;" vertex="1" parent="1">
          <mxGeometry x="195" y="140" width="110" height="30" as="geometry" />
        </mxCell>
        <mxCell id="OHQ6-CyjaJ-93ZzPqjoy-26" value="1&lt;br&gt;&lt;br&gt;*" style="text;html=1;align=center;verticalAlign=middle;resizable=0;points=[];autosize=1;strokeColor=none;fillColor=none;" vertex="1" parent="1">
          <mxGeometry x="399" y="293" width="30" height="60" as="geometry" />
        </mxCell>
        <mxCell id="OHQ6-CyjaJ-93ZzPqjoy-33" value="order" style="swimlane;fontStyle=1;align=center;verticalAlign=top;childLayout=stackLayout;horizontal=1;startSize=26;horizontalStack=0;resizeParent=1;resizeParentMax=0;resizeLast=0;collapsible=1;marginBottom=0;whiteSpace=wrap;html=1;" vertex="1" parent="1">
          <mxGeometry x="580" y="60" width="220" height="170" as="geometry" />
        </mxCell>
        <mxCell id="OHQ6-CyjaJ-93ZzPqjoy-34" value="street: string&lt;br&gt;number: int&lt;br&gt;driver: driver&lt;br&gt;client: client" style="text;strokeColor=none;fillColor=none;align=left;verticalAlign=top;spacingLeft=4;spacingRight=4;overflow=hidden;rotatable=0;points=[[0,0.5],[1,0.5]];portConstraint=eastwest;whiteSpace=wrap;html=1;" vertex="1" parent="OHQ6-CyjaJ-93ZzPqjoy-33">
          <mxGeometry y="26" width="220" height="74" as="geometry" />
        </mxCell>
        <mxCell id="OHQ6-CyjaJ-93ZzPqjoy-35" value="" style="line;strokeWidth=1;fillColor=none;align=left;verticalAlign=middle;spacingTop=-1;spacingLeft=3;spacingRight=3;rotatable=0;labelPosition=right;points=[];portConstraint=eastwest;strokeColor=inherit;" vertex="1" parent="OHQ6-CyjaJ-93ZzPqjoy-33">
          <mxGeometry y="100" width="220" height="8" as="geometry" />
        </mxCell>
        <mxCell id="OHQ6-CyjaJ-93ZzPqjoy-36" value="+ addOrder(string,int): void&lt;br&gt;+ addDriverOnOrder(driver): void&lt;br&gt;+ addClient(client): void" style="text;strokeColor=none;fillColor=none;align=left;verticalAlign=top;spacingLeft=4;spacingRight=4;overflow=hidden;rotatable=0;points=[[0,0.5],[1,0.5]];portConstraint=eastwest;whiteSpace=wrap;html=1;" vertex="1" parent="OHQ6-CyjaJ-93ZzPqjoy-33">
          <mxGeometry y="108" width="220" height="62" as="geometry" />
        </mxCell>
        <mxCell id="OHQ6-CyjaJ-93ZzPqjoy-38" value="" style="endArrow=diamondThin;endFill=1;endSize=24;html=1;rounded=0;entryX=-0.1;entryY=0.167;entryDx=0;entryDy=0;entryPerimeter=0;" edge="1" parent="1" target="OHQ6-CyjaJ-93ZzPqjoy-58">
          <mxGeometry width="160" relative="1" as="geometry">
            <mxPoint x="690" y="340" as="sourcePoint" />
            <mxPoint x="630" y="280" as="targetPoint" />
          </mxGeometry>
        </mxCell>
        <mxCell id="OHQ6-CyjaJ-93ZzPqjoy-43" value="*" style="text;html=1;align=center;verticalAlign=middle;resizable=0;points=[];autosize=1;strokeColor=none;fillColor=none;" vertex="1" parent="1">
          <mxGeometry x="95" y="308" width="30" height="30" as="geometry" />
        </mxCell>
        <mxCell id="OHQ6-CyjaJ-93ZzPqjoy-45" style="edgeStyle=orthogonalEdgeStyle;rounded=0;orthogonalLoop=1;jettySize=auto;html=1;endArrow=none;endFill=0;" edge="1" parent="1" source="OHQ6-CyjaJ-93ZzPqjoy-20">
          <mxGeometry relative="1" as="geometry">
            <mxPoint x="582" y="140" as="targetPoint" />
            <Array as="points">
              <mxPoint x="530" y="138" />
              <mxPoint x="530" y="140" />
              <mxPoint x="582" y="140" />
            </Array>
          </mxGeometry>
        </mxCell>
        <mxCell id="OHQ6-CyjaJ-93ZzPqjoy-48" value="1&amp;nbsp; &amp;nbsp; &amp;nbsp; &amp;nbsp; &amp;nbsp; &amp;nbsp; &amp;nbsp; &amp;nbsp; &amp;nbsp; &amp;nbsp;*" style="text;html=1;align=center;verticalAlign=middle;resizable=0;points=[];autosize=1;strokeColor=none;fillColor=none;" vertex="1" parent="1">
          <mxGeometry x="480" y="110" width="100" height="30" as="geometry" />
        </mxCell>
        <mxCell id="OHQ6-CyjaJ-93ZzPqjoy-52" value="" style="endArrow=open;html=1;endSize=12;startArrow=diamondThin;startSize=14;startFill=0;edgeStyle=orthogonalEdgeStyle;rounded=0;entryX=0.995;entryY=0.297;entryDx=0;entryDy=0;entryPerimeter=0;" edge="1" parent="1" target="OHQ6-CyjaJ-93ZzPqjoy-8">
          <mxGeometry relative="1" as="geometry">
            <mxPoint x="580" y="179" as="sourcePoint" />
            <mxPoint x="508.02" y="393.0239999999999" as="targetPoint" />
            <Array as="points">
              <mxPoint x="540" y="179" />
              <mxPoint x="540" y="394" />
            </Array>
          </mxGeometry>
        </mxCell>
        <mxCell id="OHQ6-CyjaJ-93ZzPqjoy-53" value="1" style="edgeLabel;resizable=0;html=1;align=left;verticalAlign=top;" connectable="0" vertex="1" parent="OHQ6-CyjaJ-93ZzPqjoy-52">
          <mxGeometry x="-1" relative="1" as="geometry">
            <mxPoint x="12" as="offset" />
          </mxGeometry>
        </mxCell>
        <mxCell id="OHQ6-CyjaJ-93ZzPqjoy-54" value="1" style="edgeLabel;resizable=0;html=1;align=right;verticalAlign=top;" connectable="0" vertex="1" parent="OHQ6-CyjaJ-93ZzPqjoy-52">
          <mxGeometry x="1" relative="1" as="geometry">
            <mxPoint x="21" as="offset" />
          </mxGeometry>
        </mxCell>
        <mxCell id="OHQ6-CyjaJ-93ZzPqjoy-56" value="1" style="text;html=1;align=center;verticalAlign=middle;resizable=0;points=[];autosize=1;strokeColor=none;fillColor=none;" vertex="1" parent="1">
          <mxGeometry x="555" y="148" width="30" height="30" as="geometry" />
        </mxCell>
        <mxCell id="OHQ6-CyjaJ-93ZzPqjoy-57" value="1" style="text;html=1;align=center;verticalAlign=middle;resizable=0;points=[];autosize=1;strokeColor=none;fillColor=none;" vertex="1" parent="1">
          <mxGeometry x="700" y="323" width="30" height="30" as="geometry" />
        </mxCell>
        <mxCell id="OHQ6-CyjaJ-93ZzPqjoy-58" value="1" style="text;html=1;align=center;verticalAlign=middle;resizable=0;points=[];autosize=1;strokeColor=none;fillColor=none;" vertex="1" parent="1">
          <mxGeometry x="685" y="228" width="30" height="30" as="geometry" />
        </mxCell>
        <mxCell id="OHQ6-CyjaJ-93ZzPqjoy-59" value="1&amp;nbsp; &amp;nbsp; &amp;nbsp; &amp;nbsp; &amp;nbsp; &amp;nbsp; &amp;nbsp; &amp;nbsp; &amp;nbsp;1" style="text;html=1;align=center;verticalAlign=middle;resizable=0;points=[];autosize=1;strokeColor=none;fillColor=none;" vertex="1" parent="1">
          <mxGeometry x="495" y="438" width="90" height="30" as="geometry" />
        </mxCell>
      </root>
    </mxGraphModel>
  </diagram>
</mxfile>
